<svg xmlns="http://www.w3.org/2000/svg" width="512" height="512" viewBox="0 0 512 512"><path fill="#13151c" d="M0 0h512v512H0z"/><path fill="#ebf1f4" d="M202.44 335.863c12.596 1.127 20.716 2.42 33.018 6.057a776 776 0 0 1 6.45 14.25c1.245 2.907 2.917 6.007 4.091 8.942l.337-.457a613 613 0 0 0-8.849-22.152c17.788 5.587 34.958 13.7 50.326 24.147 1.312.89 2.822 1.975 4.19 2.75.21.585.252.455.217 1.015-2.978 5.063 7.235 19.22 9.79 23.84 9.132 16.522 17.803 33.28 26.558 50.003l22.295 42.147c-.173 5.635-.888 11.383-1.293 17.005-.14 1.925-.68 6.795-.498 8.59h-186.34c.11-5.67 1.116-14.26 1.612-20.132a2785 2785 0 0 1 3.515-41.135c-.487-1.293-.796-8.25-.91-10.01l-1.546-26.383c-.191-3.502-.4-10.74-.903-13.845 2.787-4.153 5.614-8.918 8.273-13.195a2104 2104 0 0 0 16.854-26.69c2.721-4.363 5.574-8.812 8.168-13.255.619-1.058.831-1.713.477-2.865l.15-.382c.896-2.108 2.364-5.863 3.447-8.003q.285-.124.57-.243"/><path fill="#13151c" d="M167.86 450.733c3.598 7.202 7.07 14.97 10.485 22.29A3062 3062 0 0 1 196.333 512h-33.601c.11-5.67 1.116-14.26 1.612-20.132a2785 2785 0 0 1 3.515-41.135"/><path fill="#13151c" d="m299.638 395.435.505-.08c10.522 38.657 20.772 78.243 32.122 116.645h-15.988c-1.842-11.178-3.325-23.202-4.904-34.462a7497 7497 0 0 0-11.736-82.103"/><path fill="#13151c" d="m203.886 433.13.468-.527A7963 7963 0 0 1 227.55 512h-5.729c-5.583-12.702-11.801-25.298-17.49-37.962-2.28-5.078-4.854-10.065-7.037-15.185 5.654 7.22 12.889 18.177 18.297 25.89-4.487-16.59-7.372-34.99-11.707-51.613"/><path fill="#13151c" d="M248.565 369.81c13.08.36 27.61 8.155 38.925 14.442l-.593.34c-12.16-5.212-40.14-19.302-52.307-7.137-4.958 4.958-9.512 12.743-14.018 18.257-5.703 7.978-12.143 15.988-17.704 23.91l-.2-.492c1.525-2.095 4.173-6.915 5.701-9.353 6.327-10.087 12.584-21.28 20.097-30.522 4.855-5.975 11.004-8.805 18.601-9.332.534-.02.97-.06 1.498-.113"/><path fill="#fcfdfe" d="M198.422 344.108c.271.527.458.784.847 1.234.107.753.095 1.353-.298 2.04-2.285 4.003-4.946 8.1-7.382 11.993l-17.744 28.01a26 26 0 0 0-1.072-.085 2104 2104 0 0 0 16.854-26.69c2.721-4.363 5.574-8.812 8.168-13.255.619-1.058.831-1.713.477-2.865z"/><path fill="#fcfdfe" d="M247.068 369.923c.353-.468.183-.363-.241-.928-.906-1.205-1.383-2.673-2.071-3.998-.996-1.917-1.667-4.045-2.531-6.032-.672-1.582-.74-1.245-.317-2.795 1.245 2.907 2.917 6.007 4.091 8.942.317.885.75 2.47 1.639 2.835.237.6.616 1.296.927 1.863-.528.053-.964.092-1.498.113"/><path fill="#636572" d="M203.886 433.13c-.286-1.157-1.204-4.652-1.251-5.745.558.525 1.62 4.515 1.719 5.218z"/><path fill="#636572" d="M287.49 384.253c.868.397 2.93 1.65 3.858 2.214-1.63-.587-2.886-1.072-4.45-1.875z"/><path fill="#636572" d="M246.336 364.655c.5 1.15.84 2.158 1.302 3.293-.889-.365-1.322-1.95-1.639-2.835z"/><path fill="#8a8e9a" d="M202.868 419.623c-.17.312-1.1 1.9-1.48 1.962-.281-.357 1.049-2.147 1.28-2.455z"/><path fill="#43424a" d="M299.768 393.933c.217.62.24.755.375 1.422l-.505.08a20 20 0 0 1-.26-1.072z"/><path fill="#8a8e9a" d="M299.378 394.363c-.02-.115-.328-1.486.014-1.49.26.182.32.795.375 1.06z"/><path fill="#ebf1f4" d="M211.951 297.133c20.291 8.287 38.142 18.954 55.674 32.102 4.8 3.6 10.195 7.775 14.09 12.385.575.68 2.178 4.63 2.615 5.645 2.54 6.018 4.488 11.048 6.58 17.195.33 1.32.81 3.12.965 4.45-3.777-2.89-7.183-5.715-11.125-8.495-18.18-12.828-38.549-23.748-60.152-29.465-7.332-1.94-13.903-3.775-21.502-2.505z"/><path fill="#19bef8" d="M290.91 364.46c2.025 2.933 4.76 8.33 6.59 11.56l14.11 25.078 46.6 83.974q-.72 4.939-1.262 9.903c-.548 5.63-1.568 11.39-2.265 17.025h-5.61c-.183-1.795.357-6.665.497-8.59.405-5.623 1.12-11.37 1.293-17.005l-22.296-42.147c-8.755-16.723-17.425-33.48-26.557-50.003-2.555-4.62-12.767-18.777-9.79-23.84.035-.56-.008-.43-.218-1.015l-.127-.49c-.155-1.33-.635-3.13-.965-4.45"/><path fill="#fcfdfe" d="M292.22 370.415c2.152 5.945 4.87 10.667 7.845 16.227l8.835 16.54 29.225 54.328c4.717 8.675 11.428 20.123 15.652 28.892l-2.282 17.836c-.317 2.385-.587 5.457-1.043 7.762h-1.38c-.182-1.795.358-6.665.498-8.59.405-5.623 1.12-11.37 1.293-17.005l-22.296-42.147c-8.755-16.723-17.425-33.48-26.557-50.003-2.555-4.62-12.767-18.777-9.79-23.84"/><path fill="#19bef8" d="M196.467 343.558c.696.257 1.16.567 1.804.932.355 1.152.143 1.808-.475 2.865-2.595 4.442-5.448 8.892-8.17 13.255a2104 2104 0 0 1-16.853 26.69c-2.66 4.277-5.486 9.042-8.273 13.195.503 3.105.712 10.342.904 13.845l1.546 26.383c.113 1.76.422 8.717.91 10.01a2785 2785 0 0 0-3.516 41.135c-.496 5.872-1.502 14.462-1.612 20.132h-4.25c.332-3.772.56-7.925 1.055-11.647-.022-.558-.004-.8.04-1.368q1.02-14.155 2.287-28.293c.16-1.98.254-4.094.481-6.055 1.254-10.834.225-21.582-.336-32.437l-1.492-32.727c1.056-1.305 2.782-4.128 3.74-5.618l6.76-10.575c8.038-12.655 17.023-27.52 25.45-39.722"/><path fill="#3fc2f2" d="M159.577 498.985c.67.877.904 2.785.498 3.757-.295.705-.477-2.125-.537-2.39-.023-.557-.005-.8.038-1.367"/><path fill="#1c3f60" d="M146.17 512c1.153-.257 11.634-1.07 11.59-1.045.517-3.21.575-6.167.899-9.345.324-3.17-1.435-2.585-1.395-6.025.072-6.157.325-12.225 1.022-18.347.352-3.086.954-4.76 1.123-8.118.39-.03.202.017.563-.145-.315-3.365 1-8.403.895-12.158.12-2.935-.811-6.21-.893-9.074-.143-4.963.495-9.41-.88-14.33-.218-.78.629-3.533.479-4.925-.514-.468-.53-.445-.868-1.04.207-5.523-.506-13.628.517-19.065.06-.32.399-.343.804-.5.434-1.23-.443-6.92-.114-8.695.315-1.7 1.06-1.523 2.123-2.9.149-3.123.23-2.315 1.641-4.925 2.608-4.823 3.947-9.713 7.685-14.093 3.377-3.955 5.691-8.775 8.796-12.917l.203-.266-.191-.82c2.976-3.187 5.127-6.815 8.077-9.912.834-.875 1.01.657 2.616-2.553.765-1.172 4.279-7.09 5.318-7.49 4.687-1.807 2.806-3.61 5.243-7.527.651-.228.319-.208 1.017.077q-.285.12-.57.243c-1.084 2.14-2.552 5.895-3.448 8.002l-.15.383c-.645-.365-1.11-.675-1.805-.933-8.428 12.203-17.412 27.068-25.45 39.723l-6.76 10.575c-.958 1.49-2.684 4.313-3.74 5.618l1.492 32.727c.56 10.855 1.59 21.603.336 32.438-.227 1.96-.322 4.075-.481 6.055a1630 1630 0 0 0-2.287 28.292c-.044.567-.061.81-.04 1.368-.495 3.722-.723 7.875-1.054 11.647z"/><path fill="#1c3f60" d="M284.33 347.265c1.268.648 9.615 3.635 10.655 3.635l.17.29c-2.225.163-6.187-2.105-7.225-1.875-.308 2.64 2.295 3.495 2.842 6.12.693 3.317 2.938 6.582 4.386 9.678 2.024 4.212 3.55 8.664 5.92 12.717.545.93 1.382 5.053 1.887 5.433 2.015 1.51 1.733 2.23 2.153 5.097l.52-.26c.837.39 2.66 6.007 3.792 6.415.48.173.6.485.835.935l-.048 1.882c.643.523.716.453 1.53.713.786.73.815 3.83 1.32 4.315 3.115 2.993 4.29 4.77 5.115 9.037.083.425 1.055-.125 1.375 1.428-.21.298-.215.343-.477.588.58.387 1.455.857 1.768 1.397l-.498.673c1.32 1.734 1.725 2.547 2.74 4.514.575 1.115 2.145 3.063 2.97 4.135l-.192.188-.593-.152.195.297c1.53 2.353 2.165 4.66 3.785 6.765 1.447 1.875 3.043 4.11 4.25 6.145l-.462.74.237.38c.89.195.943.06 1.548.587-.035.748-.25 1.726.207 2.2 1.987 2.068 3.712 3.716 3.792 6.853l.838-.062c1.577 1.355 1.265 4.375 2.112 5.887.93 1.658 2.206 2.363 2.713 4.573.957 4.154 3.375 3.302 3.69 7.12l.113-.398c.71.313 1.477.788 1.667 1.603 1.442 6.154 5.273 11.22 8.235 16.697.642 1.185 1.053 1.043.475 2.127-.447.84.252 2.89-.333 3.856-.532 1.294.558 5.447-.422 6.42l-.293-.418-.675-.565q.544-4.964 1.263-9.903l-46.6-83.974-14.11-25.078c-1.83-3.23-4.565-8.627-6.59-11.56-2.093-6.147-4.04-11.177-6.58-17.195"/><path fill="#1c3f60" d="m356.948 494.975.675.565c-.003.825-.113 2.09.152 2.865.235.68-.235.718-.452 1.218.21.79.925.52-.33 1.58-.448.377.247 1.962-.003 2.565-.12.065-.248.08-.363.132-.02 1.733-.357.558-.622 1.715-.197.868.548 2.282-.24 3.14-.587.64-.058 1.498-.01 1.985q-.11.128-.22.252l.105.128c.493.038 4.29.065 4.485.135 2.267.842 4.45.39 6.882.745h-12.324c.697-5.635 1.717-11.395 2.264-17.025"/><path fill="#fcfdfe" d="M192.528 191.935c-.157-.789-.596-1.867.034-2.3 2.186-1.499 1.68-2.877 2.819-4.933 2.56-4.622 5.119-9.294 7.89-13.802.995-1.64 5.677-11.92 6.742-12.272l.494.28.237-.08-.198-1.083c1.049-1.4 1.983-2.985 3.068-4.297 1.443-1.742 3.892-3.861 5.218-5.58l.346-.108c.14.603.096.323.151.835l.15-.287c.64-1.514 1.424-1.592 2.42-2.655.033-.034.248-1.9.222-1.87 1.334-1.477 3.659-3.754 4.983-5.09q.6-.034 1.203-.052c1.12-1.341.939-1.427 2.559-2.177l.064-.375c.082-.452.127-.627.257-1.057.807-.475 5.942-3.304 6.072-3.488 1.928-2.742 2.372-1.444 5.002-3.285 3.688-2.58 8.484-4.436 12.919-5.18 1.745-.278 5.13-2.54 7.428-2.208.587.085 2.247-.037 2.784-.272-.69-.174-.927-.13-1.41-.564 1.343-.626 2.618.7 3.703.778 3.685.266 7.56-.343 11.2.359 4.755.776 8.45 1.793 13.06 3.088.23.448.18.358.3.856l.32.112.118-.593c2.052-.048 17.822 6.622 20.594 7.972.668.326 1.11.843 1.628 1.237.68.515.803.913 1.5.954l1.03-.618c2.168 1.38 2.243 2.593 4.66 1.846a62 62 0 0 1 11.807 6.942c.52.383 1.953.519 2.68 1.037 1.743 1.24 3.533 2.903 5.036 4.39l.704-.216c2.983 2.635 6.226 7.284 9.466 10.021.94.793.907 3.269 2.724 3.771.265.12 2.588 1.753 2.716 1.95 1.997 3.094 4.062 6.24 5.832 9.476.1.18.082.751.038.869-.406 1.093 1.58 2.666 1.69 3.37.96 6.196 2.857 12.096 2.45 18.5-.168 2.662-.66 3.525-1.16 5.96-.358 2.076.452 11.77-.5 13.083l-.115 2.49c-.158 3.15-.596 6.21-.99 9.33l-.338 2.821c-.363 1.118-.845 5.023-.995 6.3.005-.008-.132.362-.245.417l-.107-.494c.084-5.469-.45-10.925-.763-16.372-1.187-13.375-4.377-26.612-16.145-34.722-1.46-1.007-3.275-2.365-5.045-2.671 7.438 6.846 9.548 14.844 9.86 24.757.233 7.37-.207 19.074-1.49 26.299-5.475-3.007-13.9-1.597-17.187 3.938-2.645 4.457.602 13.096 2.127 17.773a245 245 0 0 0 4.328 12.083c-3.416 1.805-8.373 4.587-11.805 6 .152 3.29.077 4.4 2.125 7.06.1.082.97.834.882.97-.88 1.367-3.595 3.092-4.892 3.784-3.548-.33-3.416-.377-7.133-.232l.32.908c1.842.255 5.177.27 6.427 1.787.628.76.916 1.745.793 2.723-.42 3.575-4.845 4.372-7.69 3.832-1.365-.26-2.58-.755-3.918-.977 1.805 1.274 5.438 3.007 5.62 5.587.82 11.522-11.327 16.675-20.692 11.942-6.545-3.31-12.527-7.805-18.615-11.922a3338 3338 0 0 1-29.933-20.267c5.648 11.87 11.81 23.57 17.53 35.412 1.535 3.18 3.148 6.465 4.81 9.575-.41 1.962-.745 5.632-1.005 7.738-11.495-9.58-32.12-22.568-45.668-28.883 3.689-11.98 7.657-24.41 11.056-36.437q4.426-.594 8.833-1.326 1.422 3.493 3.032 6.898c.276-1.78.049-3.233.236-5.108.1-2.214-.084-6.007-.123-8.334-8.886 2.462-15.152-2.198-18.07-10.276 4.806-6.47 9.633-2.031 15.334-1.378-1.495-1.665-3.973-3.818-2.845-6.121 1.552-1.243 3.96-1.129 5.911-1.385 2.147-.293 4.26-.81 6.3-1.544 1.19-.431 2.557-1.052 3.704-1.645 18.786-9.657 34.798-23.766 50.106-38.12 7.037-6.598 15.424-16.367 25.39-17.417.69-.213.672-.222 1.27-.631-11.988-2.153-20.653 8.58-28.768 15.77-10.605 9.398-20.69 19.204-33.265 26.034-11.265 6.318-23.625 9.992-36.1 13.157-22.556 5.725-34.931 15.17-52.077 30.523l.454.45c6.596-4.117 12.813-8.792 19.674-12.662 4.763-3.01 7.787-4.849 12.867-7.405-3.424 3.89-6.987 7.6-10.185 11.692-17.23 22.05-28.441 49.883-17.384 77.608-5.74-4.69-7.899-9.038-10.077-16.068-.712.925-.496.925-.424 2.13.351 4.175 2.829 9.795 4.583 13.588-3.987-1.99-14.162-8.33-15.601-12.44-4.694-13.406-.24-27.933 4.968-39.928l-.124-1.155c-1.156 1.63-2.457 3.38-3.462 5.088.016 1.59-2.972 6.732-3.83 8.657-1.95 4.368-4.664 15.832-3.177 20.123l-.345.495c-2.168.267-2.293-4.515-2.366-6.113-.293.523-.267.512-.37 1.11-.673.157-.403-.022-.882.433-.206.982-.026 1.002-.637 1.474-1.265.14-.787-.062-1.844.683-.876 3.465.687 9.57.137 11.213l.153 1.464-.282.13c-2.044-1.02-4.055-2.717-6.119-3.94l-.25-.147c-2.847.012-12.203-10.017-13.944-12.603-.276-.41-4.054-3.875-4.65-4.425-.588-.112-.565-.065-1.125.183l.146.41c-1.072-.42-1.226-.697-2.057-1.555-4.142-3.47-7.361-8.178-9.523-13.062-1.12-2.528-.758-4.683-1.665-5.91-.487-.063-.565-.07-1.054-.193-.115-.727-.038-1.172.027-1.897l.267-.205.972.805c.156-.836-.458-1.136-.43-1.386.52-4.862.971-9.407 3.606-13.684l-.195-.736c-1.202 3.53-3.49 6.073-4.174 10.22-.38 2.3.414 8.66-1.191 9.19l-.438-.347c-.831-1.71-1.219-4.425-1.269-6.333-.242-9.4 4.328-14.7 10.667-21.027l.767-.433c.492-.76.366-1.362.349-2.287-1.13-1.81-8.698 2.638-11.503 1.63 4.716-1.713 13.497-3.415 18.816-4.835-1.872-.57-1.03-1.072-3.358-1.205 3.078-.868 5.532-1.875 8.43-3.21-2.22-.112-2.634.555-4.126.589-1.232.027-6.698.247-7.48-.195-1.573-.888-2.459.06-3.392-.434-1.662-.882-.088-.398-1.354-.172-.123-.115-.106-.277-.159-.432-.073-.065-.934-.322-1.292-.535-2.24-.665-3.372-.983-5.557-1.897q-.558-.208-1.114-.423c.118-.838-.1-1.192.887-1.339l.394-.068c.83.292 1.447.498 2.295.727 1.675.375 4.085.971 5.781 1.015 5.886-.095 11.282-.782 16.92-2.336 1.181-.083 1.145-2.065 2.073-2.375 1.75-.64 3.055-1.678 4.5-2.843 3.499-2.821 8.811-4.71 12.214-7.325 3.055-2.348 6.32-7.424 9.36-10.056.526-.457.657-.499 1.102-1.073-.303-.282-.411-.391-.905-.14-4.574 2.326-10.431 5.932-15.761 5.684l-2.835.42-.304-.706c-.88-.448-2.012-.192-3.291-.38l-.224-.035c5.507-.423 11.763-2.652 16.708-5.021.667-1.106 2.786-2.295 3.909-2.924 8.837-4.953 16.54-11.963 22.549-20.1 1.166-1.58 1.659-2.63 3.129-4.101"/><path fill="#19bef8" d="M192.528 191.935c-.157-.789-.596-1.867.034-2.3 2.186-1.499 1.68-2.877 2.819-4.933 2.56-4.622 5.119-9.294 7.89-13.802.995-1.64 5.677-11.92 6.742-12.272l.494.28.237-.08-.198-1.083c1.049-1.4 1.983-2.985 3.068-4.297 1.443-1.742 3.892-3.861 5.218-5.58l.346-.108c.14.603.096.323.151.835l.15-.287c.64-1.514 1.424-1.592 2.42-2.655.033-.034.248-1.9.222-1.87 1.334-1.477 3.659-3.754 4.983-5.09q.6-.034 1.203-.052c1.12-1.341.939-1.427 2.559-2.177l.064-.375c.082-.452.127-.627.257-1.057.807-.475 5.942-3.304 6.072-3.488 1.928-2.742 2.372-1.444 5.002-3.285 3.688-2.58 8.484-4.436 12.919-5.18 1.745-.278 5.13-2.54 7.428-2.208.587.085 2.247-.037 2.784-.272-.69-.174-.927-.13-1.41-.564 1.343-.626 2.618.7 3.703.778 3.685.266 7.56-.343 11.2.359 4.755.776 8.45 1.793 13.06 3.088.23.448.18.358.3.856l.32.112.118-.593c2.052-.048 17.822 6.622 20.594 7.972.668.326 1.11.843 1.628 1.237.68.515.803.913 1.5.954l1.03-.618c2.168 1.38 2.243 2.593 4.66 1.846a62 62 0 0 1 11.807 6.942c.52.383 1.953.519 2.68 1.037 1.743 1.24 3.533 2.903 5.036 4.39l.704-.216c2.983 2.635 6.226 7.284 9.466 10.021.94.793.907 3.269 2.724 3.771.265.12 2.588 1.753 2.716 1.95 1.997 3.094 4.062 6.24 5.832 9.476.1.18.082.751.038.869-.406 1.093 1.58 2.666 1.69 3.37.96 6.196 2.857 12.096 2.45 18.5-.168 2.662-.66 3.525-1.16 5.96-.358 2.076.452 11.77-.5 13.083l-.115 2.49c-.158 3.15-.596 6.21-.99 9.33l-.338 2.821c-.363 1.118-.845 5.023-.995 6.3.005-.008-.132.362-.245.417l-.107-.494c.084-5.469-.45-10.925-.763-16.372-1.187-13.375-4.377-26.612-16.145-34.722-1.46-1.007-3.275-2.365-5.045-2.671l-.715-.56.063-.416c1.577-.592 5.402-.197 7.06.233 6.724 1.745 11.724 7.105 14.862 13.05.267-.93.277-.898.227-1.873-1.047-3.212-2.055-5.506-3.917-8.284.485-.293.915-.542 1.41-.811l1.195 1.679c.178-.534.248-.616.648-1l.22-.248c-4.845-11.506-15.075-22.556-24.308-30.77-8.23-7.32-18.308-14.207-29.03-16.757-1.338-.319-2.72-.623-4.002-1.14-17.548-10.212-37.473-10.557-55.79-2.572-27.57 12.018-37.8 35.396-50.417 60.39-8.107 16.061-24.62 35.957-40.608 44.935l.858.53 3.638-1.604c.218.315.338.559.52.898-15.21 9.225-35.803 18.4-40.49 37.327-1.831 7.4-.19 15.857 3.83 22.29a23.5 23.5 0 0 0 2.599 3.41c-2.788-14.103 5.541-25.632 16.509-33.663l.298.776c-6.733 7.627-10.538 15.84-9.946 26.242a32.53 32.53 0 0 0 6.73 18.04c1.239 1.61 3.377 3.87 4.404 5.32.651.59 4.298 3.517 4.347 3.605-2.847.012-12.203-10.017-13.944-12.603-.276-.41-4.054-3.875-4.65-4.425-.588-.112-.565-.065-1.125.183l.146.41c-1.072-.42-1.226-.697-2.057-1.555-4.142-3.47-7.361-8.178-9.523-13.062-1.12-2.528-.758-4.683-1.665-5.91-.487-.063-.565-.07-1.054-.193-.115-.727-.038-1.172.027-1.897l.267-.205.972.805c.156-.836-.458-1.136-.43-1.386.52-4.862.971-9.407 3.606-13.684l-.195-.736c-1.202 3.53-3.49 6.073-4.174 10.22-.38 2.3.414 8.66-1.191 9.19l-.438-.347c-.831-1.71-1.219-4.425-1.269-6.333-.242-9.4 4.328-14.7 10.667-21.027l.767-.433c.492-.76.366-1.362.349-2.287-1.13-1.81-8.698 2.638-11.503 1.63 4.716-1.713 13.497-3.415 18.816-4.835-1.872-.57-1.03-1.072-3.358-1.205 3.078-.868 5.532-1.875 8.43-3.21-2.22-.112-2.634.555-4.126.589-1.232.027-6.698.247-7.48-.195-1.573-.888-2.459.06-3.392-.434-1.662-.882-.088-.398-1.354-.172-.123-.115-.106-.277-.159-.432-.073-.065-.934-.322-1.292-.535-2.24-.665-3.372-.983-5.557-1.897q-.558-.208-1.114-.423c.118-.838-.1-1.192.887-1.339l.394-.068c.83.292 1.447.498 2.295.727 1.675.375 4.085.971 5.781 1.015 5.886-.095 11.282-.782 16.92-2.336 1.181-.083 1.145-2.065 2.073-2.375 1.75-.64 3.055-1.678 4.5-2.843 3.499-2.821 8.811-4.71 12.214-7.325 3.055-2.348 6.32-7.424 9.36-10.056.526-.457.657-.499 1.102-1.073-.303-.282-.411-.391-.905-.14-4.574 2.326-10.431 5.932-15.761 5.684l-2.835.42-.304-.706c-.88-.448-2.012-.192-3.291-.38l-.224-.035c5.507-.423 11.763-2.652 16.708-5.021.667-1.106 2.786-2.295 3.909-2.924 8.837-4.953 16.54-11.963 22.549-20.1 1.166-1.58 1.659-2.63 3.129-4.101"/><path fill="#1c3f60" d="M192.528 191.935c-.157-.789-.596-1.867.034-2.3 2.186-1.499 1.68-2.877 2.819-4.933 2.56-4.622 5.119-9.294 7.89-13.802.995-1.64 5.677-11.92 6.742-12.272l.494.28.237-.08-.198-1.083c1.049-1.4 1.983-2.985 3.068-4.297 1.443-1.742 3.892-3.861 5.218-5.58l.346-.108c.14.603.096.323.151.835l.15-.287c.64-1.514 1.424-1.592 2.42-2.655.033-.034.248-1.9.222-1.87 1.334-1.477 3.659-3.754 4.983-5.09q.6-.034 1.203-.052c1.12-1.341.939-1.427 2.559-2.177l.064-.375c.082-.452.127-.627.257-1.057.807-.475 5.942-3.304 6.072-3.488 1.928-2.742 2.372-1.444 5.002-3.285 3.688-2.58 8.484-4.436 12.919-5.18 1.745-.278 5.13-2.54 7.428-2.208.587.085 2.247-.037 2.784-.272-.69-.174-.927-.13-1.41-.564 1.343-.626 2.618.7 3.703.778 3.685.266 7.56-.343 11.2.359 4.755.776 8.45 1.793 13.06 3.088.23.448.18.358.3.856l.32.112.118-.593c2.052-.048 17.822 6.622 20.594 7.972.668.326 1.11.843 1.628 1.237.68.515.803.913 1.5.954l1.03-.618c2.168 1.38 2.243 2.593 4.66 1.846a62 62 0 0 1 11.807 6.942c.52.383 1.953.519 2.68 1.037 1.743 1.24 3.533 2.903 5.036 4.39l.704-.216c2.983 2.635 6.226 7.284 9.466 10.021.94.793.907 3.269 2.724 3.771.265.12 2.588 1.753 2.716 1.95 1.997 3.094 4.062 6.24 5.832 9.476.1.18.082.751.038.869-.406 1.093 1.58 2.666 1.69 3.37.96 6.196 2.857 12.096 2.45 18.5-.168 2.662-.66 3.525-1.16 5.96-.358 2.076.452 11.77-.5 13.083-.09-1.177.102-2.636-.028-3.843-.558-5.167-.155-8.921.683-13.957 1.737-10.86-4.023-23.255-10.86-31.448-12.27-14.7-28.228-29.453-47.883-31.943-1.168.074-1.403.093-2.303-.562-1.687-1.306-3.477-2.653-5.324-3.721-16.05-9.272-36.533-8.242-53.033-.684-1.557.713-3.068 1.422-4.605 2.126-.676.437-1.038.643-1.75 1.006-11.034 6.695-19.02 13.597-26.54 24.324-8.156 11.638-12.562 24.674-21.028 36.12z"/><path fill="#1c3f60" d="M240.475 132.153a8 8 0 0 0-.065-.376c-.242-1.195 1.11-.956 1.815-.63-.676.437-1.038.643-1.75 1.006"/><path fill="#1c3f60" d="m186.916 203.527.367.817c-10.672 15.12-23.89 28.119-40.484 36.602-5.892 3.011-16.83 5.808-23.415 4.3 5.886-.095 11.282-.782 16.92-2.336 1.181-.083 1.145-2.065 2.073-2.375 1.75-.64 3.055-1.678 4.5-2.843 3.499-2.821 8.811-4.71 12.214-7.325 3.055-2.348 6.32-7.424 9.36-10.056.526-.457.657-.499 1.102-1.073-.303-.282-.411-.391-.905-.14-4.574 2.326-10.431 5.932-15.761 5.684 14.543-3.986 23.548-10.691 34.029-21.255"/><path fill="#1c3f60" d="m131.581 287.23.344.167c.419.19.508.338.71.748-1.001 9.35 1.475 15.375 7.225 22.94 1.424 1.873 4.828 5.343 6.822 6.615.652.59 4.299 3.517 4.348 3.605-2.847.012-12.203-10.017-13.944-12.603-.276-.41-4.054-3.875-4.65-4.425-.588-.112-.565-.065-1.125.183l.146.41c-1.072-.42-1.226-.697-2.057-1.555l.309-.61c.321.252.71.51 1.048.75.33-.315-.132-2.19-.232-2.865a30.5 30.5 0 0 1 1.056-13.36"/><path fill="#1c3f60" d="m133.429 252.825.422.063c-2.175 1.785-4.75 3.29-6.972 5.155-7.005 5.882-13.029 13.66-11.769 23.337l1.1-.55q0-.488.029-.977c.246-4.04 2.103-10.016 5.166-12.805-1.202 3.53-3.49 6.072-4.174 10.22-.38 2.3.414 8.66-1.191 9.19l-.438-.348c-.831-1.71-1.219-4.425-1.269-6.333-.242-9.4 4.328-14.7 10.667-21.027l.767-.433c.492-.76.366-1.362.349-2.287-1.13-1.81-8.698 2.638-11.503 1.63 4.716-1.713 13.497-3.415 18.816-4.835"/><path fill="#3fc2f2" d="m115.11 281.38 1.1-.55q-.01 2.389.067 4.773c-.7-1.636-.882-2.408-1.167-4.223"/><path fill="#1a4b6e" d="M121.405 267.048c.323-.82 1.928-2.588 2.674-3.013-.887 2.147-2.284 4.115-3.214 6.385a27.04 27.04 0 0 0 .117 20.53c1.8 4.285 5.218 8.72 8.727 11.755l-.31.61c-4.141-3.47-7.36-8.178-9.522-13.062-1.12-2.528-.758-4.683-1.665-5.91-.487-.063-.565-.07-1.054-.193-.115-.727-.038-1.172.027-1.897l.267-.205.972.805c.156-.836-.458-1.136-.43-1.386.52-4.862.971-9.407 3.606-13.684z"/><path fill="#1c3f60" d="M162.94 219.06c.668-1.106 2.787-2.295 3.91-2.924 8.837-4.953 16.54-11.963 22.549-20.1 1.166-1.58 1.659-2.63 3.129-4.101l.38.662c-7.387 10.143-18.358 21.386-29.967 26.463"/><path fill="#6497e8" d="M362.025 219.67c.692 1.118.82 2.877.83 4.204.012 1.703.517 3.942.517 5.506.103-.011.238-.135.22-.218-.352-1.513.088-1.74.398-3.034.248-1.02.12-1.91.387-3.003.15-.61.215-1.38.343-2 .077-1.5-.113-2.095.742-3.456-.157 3.15-.594 6.21-.99 9.33l-.337 2.821c-.363 1.118-.845 5.023-.995 6.3.005-.008-.132.362-.245.417l-.107-.494c.084-5.469-.45-10.925-.763-16.372"/><path fill="#1a4b6e" d="M141.265 247.02c-.728.613-1.822 1.221-2.765 1.39-2.219-.112-2.633.555-4.125.589-1.232.027-6.698.247-7.48-.195-1.573-.888-2.459.06-3.392-.434-1.662-.882-.088-.398-1.354-.172-.123-.115-.106-.277-.159-.432-.073-.065-.934-.322-1.292-.535 8.463 1.347 12.163 1.455 20.567-.212"/><path fill="#1a4b6e" d="M131.581 287.23c.46-2.015 2.092-5.333 3.123-7.118-.519 1.693-1.144 3.668-1.52 5.383l-.218 1c-.115.55-.21 1.103-.331 1.65-.201-.41-.291-.558-.71-.748z"/><path fill="#ebf1f4" d="M361.02 185.296c.178-.534.248-.616.648-1l.22-.248c1.042 2.28 1.562 4.124 2.022 6.564-1.09-2.114-1.685-3.25-2.89-5.316"/><path fill="#3fc2f2" d="M114.028 244.91c.117-.837-.1-1.191.886-1.338l.394-.068c.83.292 1.447.498 2.295.727-1.217 1.1-.9 1.06-2.462 1.103q-.558-.208-1.114-.423"/><path fill="#bce6f9" d="m157.733 238.135.858.53c-.483.22-5.663 2.754-5.99 2.348.069-.407 4.383-2.413 5.132-2.879"/><path fill="#bce6f9" d="M362.333 192.712c.21.698 1.334 3.595.952 4.102-.373.06-1.075-1.836-1.18-2.229.267-.93.277-.898.227-1.873"/><path fill="#1a4b6e" d="m188.759 201.506.516-.002c-.63.825-1.327 1.925-1.992 2.84l-.367-.817c.65-.73 1.225-1.22 1.843-2.021"/><path fill="#1babde" d="M188.759 201.506c1.237-1.746 1.782-1.378.516-.002z"/><path fill="#8183ee" d="M205.68 252.613c4.764-3.01 7.788-4.849 12.868-7.405-3.424 3.89-6.987 7.6-10.185 11.692-17.23 22.05-28.441 49.883-17.384 77.608-5.74-4.69-7.899-9.038-10.077-16.068-.712.925-.496.925-.424 2.13-.46-2.007-.579-3.902-.781-5.933-.274-1.385-.27-5.977-.208-7.524.666-16.638 8.829-32.34 18.742-45.356 1.164-1.53 7.195-7.96 7.45-9.144"/><path fill="#201e3c" d="M179.697 314.638c.065-.48.108-.955.168-1.428.197 1.68.95 3.593 1.037 5.23-.712.925-.496.925-.424 2.13-.46-2.007-.579-3.902-.781-5.933"/><path fill="#ebf1f4" d="M304.683 283.975c4.64-1.175 9.235-3.065 13.91-4.255 2.195-.558 4.137-1.048 6.404-.455 1.368.358 2.398.89 3.796.923.1.082.97.834.882.97-.88 1.367-3.595 3.092-4.892 3.784-3.548-.33-3.416-.377-7.133-.232l.32.908c1.842.255 5.177.27 6.427 1.787.628.76.916 1.745.793 2.723-.42 3.575-4.845 4.372-7.69 3.832-1.365-.26-2.58-.755-3.918-.977-1.714-.615-7.385-7.315-8.9-9.008"/><path fill="#272b36" d="M314.513 284.755c.937-.067 2.207-.11 3.137-.045l.32.908c-1.205-.145-2.21-.343-3.43-.356z"/><path fill="#bbbcc8" d="M312.27 284.978c-.297.022-2.087.204-2.178-.13.21-.55 1.85-.27 2.288-.143z"/><path fill="#636572" d="M312.38 284.705q1.067.033 2.132.05l.028.507c-.81-.072-1.45-.22-2.27-.284z"/><path fill="#8183ee" d="M177.064 273.185c1.495-.25 1.213-1.053 2.404-1.105l.454-.027c-.567.952-3.851 6.692-4.327 7.284-.677.373-.779.625-1.291 1.298-1.156 1.63-2.457 3.38-3.462 5.088.016 1.59-2.972 6.732-3.83 8.657-1.95 4.368-4.664 15.832-3.177 20.123l-.345.495c-2.168.267-2.293-4.515-2.366-6.113-.293.523-.267.512-.37 1.11-.673.157-.403-.022-.882.433-.206.982-.026 1.002-.637 1.474-1.265.14-.787-.062-1.844.683-.876 3.465.687 9.57.137 11.213-2.946-9.846.931-24.065 5.685-32.808.328-.642.66-1.09 1.02-1.707 2.023-4.038 9.583-12.896 12.831-16.098"/><path fill="#1c3f60" d="M162.836 312.313c-.162-8.668 3.036-19.536 8.006-26.59.016 1.59-2.972 6.732-3.83 8.657-1.95 4.368-4.664 15.832-3.177 20.123l-.345.495c-2.168.267-2.293-4.515-2.366-6.113-.293.523-.267.512-.37 1.11-.673.157-.403-.022-.882.433-.206.982-.026 1.002-.637 1.474-1.265.14-.787-.062-1.844.683-.876 3.465.687 9.57.137 11.213-2.946-9.846.931-24.065 5.685-32.808l.474.325c-2.422 6.938-3.426 14.47-1.331 21.65.292-.312.348-.315.48-.652"/><path fill="#6497e8" d="M162.836 312.313c.154.445.322 1.572.063 1.97-.263-.006-.496-1.133-.543-1.318.292-.312.348-.315.48-.652"/><path fill="#3b436e" d="M164.233 289.283c-.119.974-.14 1.102-.546 2.032l-.474-.325c.328-.642.66-1.09 1.02-1.707"/><path fill="#3fc2f2" d="M358.415 184.428c-1.448-2.062-2.453-3.675-4.21-5.637-.795-.889-2.495-2.393-3.082-3.149l-.47-.606c4.357 2.979 5.804 4.449 9.172 8.58-.495.27-.925.519-1.41.812"/><path fill="#3fc2f2" d="m169.402 233.399-.256.716c-2.17 1.08-4.218 2.68-6.397 3.843-.182-.34-.302-.583-.52-.898.66-.503 2.124-1.067 2.926-1.485l2.59-1.289q.614-.31 1.214-.646z"/><path fill="#9d93ef" d="M177.064 273.185a72 72 0 0 1 5.406-4.88c-.469.752-2.007 3.18-2.548 3.748l-.454.027c-1.191.053-.909.855-2.404 1.105"/><path fill="#3fc2f2" d="M148.39 265.083c-.476.527-2.429 2.64-2.894 3.014l-.299-.774c.44-.645 2.446-1.77 3.194-2.24"/><path fill="#43424a" d="M335.763 179.341c.425.06 2.697.624 2.77 1.06-.026.018-3.555-.41-4.04-.43.69-.212.672-.22 1.27-.63"/><path fill="#43424a" d="M248.786 266.193c.14 1.092.184 2.21.17 3.307.004-.295.126 4.272-.405 1.8.275-1.78.048-3.233.235-5.108"/><path fill="#272b36" d="M182.944 267.228c.853-.796 1.737-1.633 2.609-2.403l.454.45c-1.019.76-1.986 1.295-3.063 1.953"/><path fill="#201e3c" d="M174.304 280.635c.512-.673.614-.925 1.29-1.298-.39.878-.736 1.598-1.166 2.453z"/><path fill="#bce6f9" d="M169.402 233.399c.174-.102.897-.67 1.056-.287-.051.338-1.029.815-1.312 1.003z"/><path fill="#13151c" d="m293.595 173.479.287.616c-22.904 26.96-38.262 40.362-72.79 49.552l-.209-.525c31.582-11.787 49.56-25.261 72.712-49.643"/><path fill="#13151c" d="M287.378 221.958c13.24-4.479 24.767-2.194 33.665 9.125-10.635-6.655-19.503-9.84-32.183-8.79a75 75 0 0 0-1.483-.335"/><path fill="#8183ee" d="M228.249 228.342c10.284-2.219 16.876-4.654 26.471-8.788.912.303.81.32 1.275 1.181a86.2 86.2 0 0 1-27.197 9.135c-.048-.915-.171-.726-.55-1.528"/><path fill="#8183ee" d="m206.228 229.393.519-.034.377-.008c.935-.027 1.587.037 2.501.137 6.561.721 12.191-.255 18.624-1.146.378.802.501.613.549 1.528-8.098 1.191-14.583.882-22.57-.477"/><path fill="#8183ee" d="m268.993 211.58.334.466c-4.812 3.33-8.102 5.822-13.332 8.69-.465-.862-.363-.879-1.275-1.182 5.028-2.696 9.443-4.546 14.273-7.974"/><path fill="#43424a" d="m296.828 169.976.197.373c-.92.905-2.217 2.681-3.142 3.746l-.288-.616c.955-1.187 2.207-2.29 3.232-3.504"/><path fill="#cbc6f3" d="M268.993 211.58c.092-.095 3.922-3.22 2.957-1.546.077-.135-1.037.814-1.105.876q-.703.645-1.518 1.137z"/><path fill="#43424a" d="M324.388 268.415c.982-.218 3.832-.375 4.365.702l-.01.033c-.145.045-2.658-.455-3.906-.272z"/><path fill="#636572" d="M217.492 224.326c.87-.36 2.488-1.017 3.391-1.204l.209.525c-.798.169-2.857.533-3.57.841z"/><path fill="#ebf1f4" d="M296.828 169.976c1.812-2.701 2.945-2.347.197.373z"/><path fill="#272b36" d="M288.86 222.294c-.29.052-2.335.486-2.48.283.118-.247.76-.496.998-.62q.743.162 1.482.337"/><path fill="#8a8e9a" d="M324.838 268.878c-.188.032-1.323.274-1.428.01.14-.245.735-.393.977-.473z"/><path fill="#ebf1f4" d="M217.521 224.488c-1.192.636-1.454-.074-.03-.162z"/><path fill="#fcfdfe" d="M364.233 234.598c.177-.662.07-1.154.704-1.34 1.738 13.372 3.708 22.702 10.068 34.684 9.522 17.935 31.248 32.88 33.655 53.598-.145.547-.19.517-.583.993-1.914-22.108-29.65-36.91-37.497-56.03l-.455.635c2.558 8.905 4.345 13.427 8.433 21.877 7.347 15.188 24.91 39.873 16.1 57.007-2.418 4.706-6.696 7.548-11.05 10.098 9.757-14.308 5.127-27.455-2.298-41.363.007 1.238.678 2.945 1.075 4.176 3.74 14.045.348 32.15-14.045 38.774-4.557 2.983-8.69 4.548-13.9 6.188-3.125 1.143-7.902 1.54-11.248 1.85 20.86-25.92 16.106-61.89 13.976-92.55.14-1.285-.286-.98.484-1.995l1.938 10.255.688-.27c.037-1.48-.118-3.43-.228-4.923-1.01-13.755-.615-27.251-.108-41.012h.885c.538 6.191 1.4 12.225 2.236 18.377.087.07.21.2.31.19.2-.457.162-5.861.347-7.074.037-3.07.23-6.38.357-9.466.1-.82.118-1.84.156-2.679"/><path fill="#8183ee" d="M357.168 273.195c.14-1.285-.286-.98.484-1.995l1.938 10.255c.283 1.785.42 3.733 1.248 5.325.382 1.82.52 4.06.872 5.985 3.808 20.765 6.058 44.335-3.42 63.938-.66 1.365-3.648 6.137-3.85 7.192-3.125 1.143-7.902 1.54-11.248 1.85 20.86-25.92 16.106-61.89 13.976-92.55"/><path fill="#19bef8" d="M381.545 321.97c.78-.33.717-2.208.84-3.038 3.74 14.046.348 32.15-14.045 38.775 6.958-9.79 8.485-20.86 7.845-32.514.298-1.563-.822-2.476.7-3.483 2.12 10.775 1.913 19.798-2.465 29.848 7.602-10.145 8.232-17.458 7.125-29.588"/><path fill="#3fc2f2" d="M381.545 321.97c-.567-2.808-1.137-5.508-2.045-8.228-.183-.55-1.875-5.532-1.875-5.592.053-.06.012-.032.155-.065.008.005 3.193 5.953 3.373 6.348l.157.325c.007 1.237.678 2.945 1.075 4.175-.123.83-.06 2.707-.84 3.037"/><path fill="#3fc2f2" d="M376.185 325.193c-.065-.115-.71-4.753-.697-4.818.185-1.07-2.323-10.855-2.315-10.868l.04-.002c.712.423 3.544 10.93 3.672 12.205-1.522 1.007-.402 1.92-.7 3.483"/><path fill="#8a8e9a" d="M363.72 246.743c.122 2.148.105 8.55-.198 10.59-.097-.673-.492-3.153-.46-3.706.088.07.21.2.31.19.2-.457.163-5.861.348-7.074"/><path fill="#201e3c" d="m359.59 281.455.688-.27c.274 1.485.42 4.015.56 5.595-.828-1.592-.966-3.54-1.248-5.325"/><path fill="#636572" d="M370.125 267.138c-.055-.255-.55-2.043-.283-2.258q.046.019.093.035l.202.337-.034-.062c.17.435.32.875.477 1.313z"/><path fill="#8183ee" d="m336.283 315.363.257.327c.495.613.335 1.303.335 2.048-1.998 13.01-5.205 28.437-13.137 39.28-2.678-.393-7.138-.973-9.64-1.79.114-.438.484-.65.875-1.026 1.64-.672 4.657-3.65 5.837-4.987 8.405-9.54 12.435-21.762 15.473-33.852"/><path fill="#8183ee" d="M343.838 324.163c.552.892.402 1.017.532 2.09-1.658 12.072-3.34 19.72-7.748 31.262q-4.126.012-8.247-.072c9.215-9.098 12.8-21.02 15.462-33.28"/><path fill="#3fc2f2" d="M96.206 269.85c6.907-12.285 22.114-14.193 33.865-18.23 2.328.132 1.486.635 3.358 1.205-5.32 1.42-14.1 3.123-18.816 4.835-5.522 2.087-15.538 6.775-18.154 12.367z"/><path fill="#fcfdfe" d="M339.53 239.339c2.843.047 3.95.29 6.583 1.561-1.57 1.239-2.818 2.175-4.736 2.869l-.8.283c-2.55.437-3.974.125-6.477-.354 1.395-3.141 1.927-3.8 5.43-4.36"/><path fill="#1babde" d="M114.028 244.91c-7.626-3.773-12.889-9.47-12.752-18.397.014-.91.975-6.996 1.382-7.389.369.882-2.217 8.367.285 13.593 2.827 5.903 6.397 8.236 12.365 10.787l-.394.069c-.987.146-.769.5-.886 1.338"/><path fill="#1babde" d="M150.052 225.202a36.4 36.4 0 0 1-8.263.158c-7.66-.697-16.156-4.072-21.18-10.054 7.695 6.756 15.468 9.215 25.624 8.775l.224.035c1.279.188 2.411-.069 3.29.38z"/><path fill="#bbbcc8" d="M408.66 321.54c.927 3.787-.853 11.085-2.788 14.46-.217.377-1.07 2.15-1.47 2.137-.07-.057-.037-.017-.06-.144.166-.383 1.04-1.745 1.273-2.163 2.49-4.46 2.15-8.527 2.462-13.297.393-.476.438-.446.583-.993"/><path fill="#6561b7" d="m337.325 309.29.123 1.96c.122 1.752-.278 4.69-.573 6.488 0-.745.16-1.435-.335-2.048l-.257-.327c.072-.375.135-.738.204-1.113q.121-.625.265-1.248c.298-1.34.385-2.355.573-3.712"/><path fill="#6561b7" d="M343.838 324.163c.037-.555.622-5.456.932-5.59.333.275-.277 6.852-.4 7.68-.13-1.073.02-1.198-.533-2.09"/><path fill="#6561b7" d="m356.325 266.053.718.714c-.088 1.168.487 3.1.61 4.433-.77 1.015-.346.71-.486 1.995-.41-.832-.452-5.652-.842-7.142"/><path fill="#bbbcc8" d="M359.943 235.25q.007-2.123.135-4.242c.005-.08-.038-.825.192-.834.132.128.52 4.55.558 5.077z"/><path fill="#8a8e9a" d="m364.635 230.448.135 1.427c.045.46.12.911.168 1.382-.635.187-.528.68-.705 1.341-.005-.968-.07-3.022.29-3.861z"/><path fill="#201e3c" d="M356.325 266.053c-.035-.223-.2-1.09 0-1.228.572-.392.7 1.785.718 1.942z"/><path fill="#1c3f60" d="M117.435 277.595c.15-.033.1-.035.174-.02.062.063.027.012.092.19-.198.045-.137.053-.22.028-.045-.07-.023-.018-.046-.198"/><path fill="#1c3f60" d="m96.206 269.85.252.177c-.125.233-.308.786-.675.673-.204-.215.008-.467.183-.627z"/><path fill="#1c3f60" d="M357.943 496.545q.063-.004.127-.005l.002.063-.092.104z"/><path fill="#1c3f60" d="M124.715 258.465c.177.153.187.135.285.285-.144-.095-.17-.147-.285-.285"/></svg>